{"asset":{"generator":"Khronos glTF Blender I/O v5.2.39","version":"2.0"},"scene":0,"scenes":[{"name":"Scene","nodes":[0,1]}],"nodes":[{"mesh":0,"name":"Base","translation":[0,-0.3499999940395355,0]},{"mesh":1,"name":"Suzanne","translation":[0,1,0]}],"animations":[{"channels":[{"sampler":0,"target":{"node":1,"path":"rotation"}}],"name":"SuzanneAction","samplers":[{"input":8,"interpolation":"LINEAR","output":9}]}],"materials":[{"doubleSided":true,"name":"Slate","pbrMetallicRoughness":{"baseColorFactor":[0.09000000357627869,0.10000000149011612,0.12999999523162842,1],"metallicFactor":0,"roughnessFactor":0.5}},{"doubleSided":true,"name":"Brass","pbrMetallicRoughness":{"baseColorFactor":[0.7200000286102295,0.5099999904632568,0.1599999964237213,1],"metallicFactor":0.8999999761581421,"roughnessFactor":0.25}}],"meshes":[{"name":"Cylinder","primitives":[{"attributes":{"POSITION":0,"NORMAL":1,"TEXCOORD_0":2},"indices":3,"material":0}]},{"name":"Suzanne","primitives":[{"attributes":{"POSITION":4,"NORMAL":5,"TEXCOORD_0":6},"indices":7,"material":1}]}],"accessors":[{"bufferView":0,"componentType":5126,"count":192,"max":[1.600000023841858,0.15000000596046448,1.600000023841858],"min":[-1.600000023841858,-0.15000000596046448,-1.600000023841858],"type":"VEC3"},{"bufferView":1,"componentType":5126,"count":192,"type":"VEC3"},{"bufferView":2,"componentType":5126,"count":192,"type":"VEC2"},{"bufferView":3,"componentType":5123,"count":372,"type":"SCALAR"},{"bufferView":4,"componentType":5126,"count":555,"max":[1.3671875,0.984375,0.8515625],"min":[-1.3671875,-0.984375,-0.8515625],"type":"VEC3"},{"bufferView":5,"componentType":5126,"count":555,"type":"VEC3"},{"bufferView":6,"componentType":5126,"count":555,"type":"VEC2"},{"bufferView":7,"componentType":5123,"count":2904,"type":"SCALAR"},{"bufferView":8,"componentType":5126,"count":60,"max":[2.5],"min":[0.041666666666666664],"type":"SCALAR"},{"bufferView":9,"componentType":5126,"count":60,"type":"VEC4"}],"bufferViews":[{"buffer":0,"byteLength":2304,"byteOffset":0,"target":34962},{"buffer":0,"byteLength":2304,"byteOffset":2304,"target":34962},{"buffer":0,"byteLength":1536,"byteOffset":4608,"target":34962},{"buffer":0,"byteLength":744,"byteOffset":6144,"target":34963},{"buffer":0,"byteLength":6660,"byteOffset":6888,"target":34962},{"buffer":0,"byteLength":6660,"byteOffset":13548,"target":34962},{"buffer":0,"byteLength":4440,"byteOffset":20208,"target":34962},{"buffer":0,"byteLength":5808,"byteOffset":24648,"target":34963},{"buffer":0,"byteLength":240,"byteOffset":30456},{"buffer":0,"byteLength":960,"byteOffset":30696}],"buffers":[{"byteLength":31656,"uri":"data:application/octet-stream;base64,"}]}